<?xml version="1.0" standalone="no"?>
<!DOCTYPE svg PUBLIC "-//W3C//DTD SVG 20010904//EN"
 "http://www.w3.org/TR/2001/REC-SVG-20010904/DTD/svg10.dtd">
<svg version="1.0" xmlns="http://www.w3.org/2000/svg" width="1200pt" height="100pt" viewBox="0 0 1200.000000 1200.000000">
<metadata>
Created by potrace 1.15, written by Peter Selinger 2001-2017
</metadata>
<g transform="translate(0.000000,200.000000) scale(0.100000,-0.100000)"
fill="#000000" stroke="none">
<path d="M4260 12790 c-1204 -93 -2540 -539 -3919 -1308 -186 -104 -248 -157
-296 -255 -51 -103 -52 -149 -16 -497 17 -162 62 -610 101 -995 39 -385 75
-734 80 -775 31 -234 228 -396 455 -376 97 9 187 55 295 152 435 393 909 749
1285 965 224 128 554 275 819 366 264 89 445 123 658 123 172 0 285 -23 410
-83 177 -84 288 -191 364 -352 133 -279 135 -668 7 -1015 -77 -209 -253 -513
-447 -775 -36 -49 -812 -906 -1724 -1903 -911 -998 -1672 -1837 -1689 -1865
-47 -76 -67 -164 -59 -262 14 -163 186 -1841 192 -1870 21 -97 109 -217 198
-269 58 -34 140 -56 207 -56 33 0 197 29 371 65 172 35 477 98 678 139 201 41
685 141 1075 221 391 80 886 182 1100 226 215 44 476 97 580 119 105 22 433
89 730 150 297 61 626 128 730 150 105 22 433 89 730 150 782 160 811 167 871
194 69 32 152 115 188 188 57 116 57 103 -28 948 -114 1129 -111 1103 -145
1176 -70 149 -215 244 -375 244 -45 0 -200 -29 -483 -89 -446 -96 -1070 -229
-1688 -361 -209 -45 -454 -97 -544 -116 -90 -19 -165 -33 -167 -31 -2 2 208
264 468 583 937 1151 1176 1462 1505 1954 462 692 680 1225 758 1849 84 679
-63 1450 -379 1995 -425 732 -1143 1168 -2111 1282 -155 18 -621 26 -785 14z"/>
</g>
</svg>
